HIERARCHY
ROOT hip
{
  OFFSET 0 0 0
  CHANNELS 6 Xposition Yposition Zposition Zrotation Yrotation Xrotation
  JOINT abdomen
  {
    OFFSET 0 20.6881 -0.73152
    CHANNELS 3 Zrotation Xrotation Yrotation
    JOINT chest
    {
      OFFSET 0 11.7043 -0.48768
      CHANNELS 3 Zrotation Xrotation Yrotation
      JOINT neck
      {
        OFFSET 0 22.1894 -2.19456
        CHANNELS 3 Zrotation Xrotation Yrotation
        JOINT head
        {
          OFFSET -0.24384 7.07133 1.2192
          CHANNELS 3 Zrotation Xrotation Yrotation
          JOINT leftEye
          {
            OFFSET 4.14528 8.04674 8.04672
            CHANNELS 3 Zrotation Xrotation Yrotation
            End Site
            {
              OFFSET 1 0 0
            }
          }
          JOINT rightEye
          {
            OFFSET -3.6576 8.04674 8.04672
            CHANNELS 3 Zrotation Xrotation Yrotation
            End Site
            {
              OFFSET 1 0 0
            }
          }
        }
      }
      JOINT rCollar
      {
        OFFSET -2.68224 19.2634 -4.8768
        CHANNELS 3 Zrotation Xrotation Yrotation
        JOINT rShldr
        {
          OFFSET -8.77824 -1.95073 1.46304
          CHANNELS 3 Zrotation Xrotation Yrotation
          JOINT rForeArm
          {
            OFFSET -28.1742 -1.7115 0.48768
            CHANNELS 3 Zrotation Xrotation Yrotation
            JOINT rHand
            {
              OFFSET -22.5879 0.773209 7.07136
              CHANNELS 3 Zrotation Xrotation Yrotation
              JOINT rThumb1
              {
                OFFSET -1.2192 -0.487915 3.41376
                CHANNELS 3 Zrotation Xrotation Yrotation
                JOINT rThumb2
                {
                  OFFSET -3.37035 -0.52449 3.41376
                  CHANNELS 3 Zrotation Xrotation Yrotation
                  End Site
                  {
                    OFFSET -1.78271 -1.18214 1.43049
                  }
                }
              }
              JOINT rIndex1
              {
                OFFSET -7.75947 0.938293 5.60832
                CHANNELS 3 Zrotation Xrotation Yrotation
                JOINT rIndex2
                {
                  OFFSET -2.54057 -0.884171 1.56538
                  CHANNELS 3 Zrotation Xrotation Yrotation
                  End Site
                  {
                    OFFSET -1.62519 -0.234802 1.16502
                  }
                }
              }
              JOINT rMid1
              {
                OFFSET -8.24714 1.18213 3.41376
                CHANNELS 3 Zrotation Xrotation Yrotation
                JOINT rMid2
                {
                  OFFSET -3.10165 -0.590103 1.0647
                  CHANNELS 3 Zrotation Xrotation Yrotation
                  End Site
                  {
                    OFFSET -2.48547 -0.328903 0.83742
                  }
                }
              }
              JOINT rRing1
              {
                OFFSET -8.82822 0.546677 1.51678
                CHANNELS 3 Zrotation Xrotation Yrotation
                JOINT rRing2
                {
                  OFFSET -2.60934 -0.819778 -0.0198488
                  CHANNELS 3 Zrotation Xrotation Yrotation
                  End Site
                  {
                    OFFSET -2.33842 -0.294052 0.168128
                  }
                }
              }
              JOINT rPinky1
              {
                OFFSET -8.27202 -0.0477905 -0.4584
                CHANNELS 3 Zrotation Xrotation Yrotation
                JOINT rPinky2
                {
                  OFFSET -1.82734 -0.647385 -0.700984
                  CHANNELS 3 Zrotation Xrotation Yrotation
                  End Site
                  {
                    OFFSET -1.69225 -0.51767 -0.607171
                  }
                }
              }
            }
          }
        }
      }
      JOINT lCollar
      {
        OFFSET 2.68224 19.2634 -4.8768
        CHANNELS 3 Zrotation Xrotation Yrotation
        JOINT lShldr
        {
          OFFSET 8.77824 -1.95073 1.46304
          CHANNELS 3 Zrotation Xrotation Yrotation
          JOINT lForeArm
          {
            OFFSET 28.1742 -1.7115 0.48768
            CHANNELS 3 Zrotation Xrotation Yrotation
            JOINT lHand
            {
              OFFSET 22.5879 0.773209 7.07136
              CHANNELS 3 Zrotation Xrotation Yrotation
              JOINT lThumb1
              {
                OFFSET 1.2192 -0.487915 3.41376
                CHANNELS 3 Zrotation Xrotation Yrotation
                JOINT lThumb2
                {
                  OFFSET 3.37035 -0.52449 3.41376
                  CHANNELS 3 Zrotation Xrotation Yrotation
                  End Site
                  {
                    OFFSET 1.78271 -1.18214 1.43049
                  }
                }
              }
              JOINT lIndex1
              {
                OFFSET 7.75947 0.938293 5.60832
                CHANNELS 3 Zrotation Xrotation Yrotation
                JOINT lIndex2
                {
                  OFFSET 2.54057 -0.884171 1.56538
                  CHANNELS 3 Zrotation Xrotation Yrotation
                  End Site
                  {
                    OFFSET 1.62519 -0.234802 1.16502
                  }
                }
              }
              JOINT lMid1
              {
                OFFSET 8.24714 1.18213 3.41376
                CHANNELS 3 Zrotation Xrotation Yrotation
                JOINT lMid2
                {
                  OFFSET 3.10165 -0.590103 1.0647
                  CHANNELS 3 Zrotation Xrotation Yrotation
                  End Site
                  {
                    OFFSET 2.48547 -0.328903 0.83742
                  }
                }
              }
              JOINT lRing1
              {
                OFFSET 8.82822 0.546677 1.51678
                CHANNELS 3 Zrotation Xrotation Yrotation
                JOINT lRing2
                {
                  OFFSET 2.60934 -0.819778 -0.0198488
                  CHANNELS 3 Zrotation Xrotation Yrotation
                  End Site
                  {
                    OFFSET 2.33842 -0.294052 0.168128
                  }
                }
              }
              JOINT lPinky1
              {
                OFFSET 8.27202 -0.0477905 -0.4584
                CHANNELS 3 Zrotation Xrotation Yrotation
                JOINT lPinky2
                {
                  OFFSET 1.82734 -0.647385 -0.700984
                  CHANNELS 3 Zrotation Xrotation Yrotation
                  End Site
                  {
                    OFFSET 1.69225 -0.51767 -0.607171
                  }
                }
              }
            }
          }
        }
      }
    }
  }
  JOINT rButtock
  {
    OFFSET -8.77824 4.35084 1.2192
    CHANNELS 3 Zrotation Xrotation Yrotation
    JOINT rThigh
    {
      OFFSET 0 -1.70687 -2.19456
      CHANNELS 3 Zrotation Xrotation Yrotation
      JOINT rShin
      {
        OFFSET 0 -36.8199 0.73152
        CHANNELS 3 Zrotation Xrotation Yrotation
        JOINT rFoot
        {
          OFFSET 0.73152 -45.1104 -5.12064
          CHANNELS 3 Zrotation Xrotation Yrotation
          End Site
          {
            OFFSET -1.1221 -3.69964 12.103
          }
        }
      }
    }
  }
  JOINT lButtock
  {
    OFFSET 8.77824 4.35084 1.2192
    CHANNELS 3 Zrotation Xrotation Yrotation
    JOINT lThigh
    {
      OFFSET 0 -1.70687 -2.19456
      CHANNELS 3 Zrotation Xrotation Yrotation
      JOINT lShin
      {
        OFFSET 0 -36.8199 0.73152
        CHANNELS 3 Zrotation Xrotation Yrotation
        JOINT lFoot
        {
          OFFSET -0.73152 -45.1104 -5.12064
          CHANNELS 3 Zrotation Xrotation Yrotation
          End Site
          {
            OFFSET 1.1221 -3.69964 12.103
          }
        }
      }
    }
  }
}
MOTION
Frames:	8
Frame Time:	0.00833333
70.1286 84.3421 13.81 0.0 0.0 0.0 -1.09229 -0.00410961 -0.0300719 -0.301198 -0.00346492 -0.0521777 -1.17755e-14 -1.59028e-15 -1.11816e-16 -3.54209e-14 3.18055e-15 -4.48819e-16 -0.0 0.0 0.0 -0.0 0.0 0.0 -6.16386e-15 -1.55301e-18 0.0 -1.21717e-13 -2.67117e-16 -9.93923e-16 -2.15259e-12 6.38695e-13 -3.18055e-15 -2.46075e-11 -6.75122e-13 -3.4668e-13 -5.80506e-11 -8.14658e-14 -7.34708e-13 -1.00251e-10 -1.39944e-13 -1.28494e-12 -5.80447e-11 -7.55382e-14 -7.4743e-13 7.73091 5.47488 0.417314 -5.80492e-11 -8.05078e-14 -7.41069e-13 2.90554 0.965183 0.102902 -5.80317e-11 -8.00108e-14 -7.46635e-13 10.2786 0.731801 0.0259123 -5.80481e-11 -8.62725e-14 -7.4743e-13 2.22167 -0.733487 -0.20892 -6.06178e-15 -4.65902e-18 -1.98785e-16 -1.27229e-13 1.30452e-16 -3.18055e-15 -2.14941e-12 -6.45851e-13 -2.22639e-14 -2.46127e-11 6.30321e-13 -3.30778e-13 -5.80534e-11 -3.98399e-14 -7.63333e-13 -1.00263e-10 -6.67917e-14 -1.28892e-12 -5.80626e-11 -3.45885e-14 -7.56972e-13 -7.73091 5.47488 -0.417314 -5.80555e-11 -3.8763e-14 -7.56972e-13 -2.90554 0.965183 -0.102902 -5.80737e-11 -3.83654e-14 -7.50611e-13 -10.2786 0.731801 -0.0259123 -5.80549e-11 -4.33351e-14 -7.4743e-13 -2.22167 -0.733487 0.20892 -2.03217e-16 0.0 -3.88251e-19 -0.322022 -1.92007 -0.0117215 -0.00932024 -2.07855 -0.0770078 -0.506015 3.99667 0.139391 2.03217e-16 0.0 3.88251e-19 -1.33957 -5.66992 0.118116 -0.000501549 4.71389 -0.0320461 0.52091 0.954206 -0.0788737
64.8849 82.2663 7.19339 -44.3963 -85.9849 50.5291 -0.94264 -0.523723 1.09121 -0.727875 -1.70242 0.229767 0.659413 -0.958786 0.0544506 -0.0806674 3.10409 -0.335371 -0.0 0.0 0.0 -0.0 0.0 0.0 -7.51324e-15 -1.95942e-14 1.13105e-14 -1.18558 10.8083 4.52902 -13.0714 -10.0999 13.9201 0.285806 -11.9911 -1.55793 1.39973e-10 2.80901e-11 -1.56285e-10 2.45857e-10 4.82915e-11 -2.63888e-10 1.39978e-10 2.8095e-11 -1.56297e-10 7.73091 5.47488 0.417314 1.39973e-10 2.80917e-11 -1.56289e-10 2.90554 0.965183 0.102902 1.39987e-10 2.8092e-11 -1.56294e-10 10.2786 0.731801 0.0259123 1.39972e-10 2.80882e-11 -1.56293e-10 2.22167 -0.733487 -0.20892 -7.44499e-15 -1.96003e-14 1.10834e-14 4.31497 8.8918 -4.62138 10.6221 -7.49245 -12.7084 -0.0753623 -6.09958 0.839831 -3.69093e-10 3.15464e-10 5.89064e-11 -6.38367e-10 5.47398e-10 9.68985e-11 -3.691e-10 3.15469e-10 5.89148e-11 -7.73091 5.47488 -0.417314 -3.69094e-10 3.15466e-10 5.89132e-11 -2.90554 0.965183 -0.102902 -3.69108e-10 3.15466e-10 5.89168e-11 -10.2786 0.731801 -0.0259123 -3.69093e-10 3.15463e-10 5.89165e-11 -2.22167 -0.733487 0.20892 -2.03217e-16 0.0 -3.88251e-19 -0.602512 -8.83235 -4.99147 0.0197405 8.66187 0.0995748 -1.04141 0.280377 -5.82555 2.03217e-16 0.0 3.88251e-19 0.203964 -11.159 4.66757 -0.00838533 13.4831 -0.174089 0.857324 -2.68213 3.12155
64.8871 82.205 7.04653 -44.3605 -85.9361 50.5001 -0.767637 -1.08157 2.27625 -1.16029 -3.49504 0.528314 1.36397 -1.96768 0.114099 -0.136408 6.391 -0.690558 -0.0 0.0 0.0 -0.0 0.0 0.0 -1.03946e-14 -6.71921e-14 2.32454e-14 -4.43071 22.0054 9.91516 -21.593 -18.8511 29.9911 -0.191118 -24.8061 -3.47483 3.91508e-10 6.75703e-11 -3.57885e-10 6.8556e-10 1.16537e-10 -6.04641e-10 3.91512e-10 6.7574e-11 -3.57896e-10 7.73091 5.47488 0.417314 3.91507e-10 6.75725e-11 -3.57886e-10 2.90554 0.965183 0.102902 3.91517e-10 6.75726e-11 -3.5789e-10 10.2786 0.731801 0.0259123 3.91504e-10 6.75714e-11 -3.57887e-10 2.22167 -0.733487 -0.20892 -1.03604e-14 -6.72014e-14 2.29876e-14 10.5175 18.0885 -9.93485 18.3235 -14.2444 -26.862 0.0439438 -12.5682 1.76339 -7.71087e-10 7.14086e-10 1.52358e-10 -1.33413e-09 1.23943e-09 2.5219e-10 -7.71091e-10 7.14091e-10 1.52368e-10 -7.73091 5.47488 -0.417314 -7.71086e-10 7.1409e-10 1.52365e-10 -2.90554 0.965183 -0.102902 -7.71096e-10 7.1409e-10 1.52366e-10 -10.2786 0.731801 -0.0259123 -7.71087e-10 7.14089e-10 1.52361e-10 -2.22167 -0.733487 0.20892 -2.03217e-16 0.0 -3.88251e-19 -2.25271 -15.9401 -10.5246 -0.0250846 20.001 0.301802 -2.44281 -3.55212 -12.1642 2.03217e-16 0.0 3.88251e-19 2.7925 -16.7867 9.67373 0.0342114 22.7197 -0.340544 1.66323 -6.48928 6.5815
64.8871 82.1327 6.88691 -45.1093 -85.9382 51.2469 -0.582355 -1.56059 3.33487 -1.5309 -5.09987 0.796507 1.98371 -2.87635 0.163535 -0.131754 9.31097 -1.01805 -0.0 0.0 0.0 -0.0 0.0 0.0 -1.0212e-14 -5.87796e-14 3.39316e-14 -9.3768 31.5429 15.7142 -24.9744 -22.9748 45.5627 -1.48401 -35.8538 -5.64372 5.3602e-10 8.44333e-11 -4.67387e-10 9.38074e-10 1.45154e-10 -7.89094e-10 5.36023e-10 8.4436e-11 -4.67397e-10 7.73091 5.47488 0.417314 5.36018e-10 8.4436e-11 -4.67386e-10 2.90554 0.965183 0.102902 5.36025e-10 8.4436e-11 -4.67388e-10 10.2786 0.731801 0.0259123 5.36013e-10 8.44372e-11 -4.67384e-10 2.22167 -0.733487 -0.20892 -1.02114e-14 -5.87917e-14 3.36478e-14 17.6068 25.9422 -15.2674 22.3143 -18.0115 -40.1212 0.334418 -18.2826 2.6385 -9.91172e-10 9.46471e-10 1.78246e-10 -1.71458e-09 1.64233e-09 2.93273e-10 -9.91174e-10 9.46476e-10 1.78258e-10 -7.73091 5.47488 -0.417314 -9.9117e-10 9.46476e-10 1.78253e-10 -2.90554 0.965183 -0.102902 -9.91175e-10 9.46476e-10 1.78252e-10 -10.2786 0.731801 -0.0259123 -9.9117e-10 9.46476e-10 1.78244e-10 -2.22167 -0.733487 0.20892 -2.03217e-16 0.0 -3.88251e-19 -4.96441 -21.964 -15.9588 -0.143589 30.1417 0.519473 -4.40743 -6.80578 -17.8848 2.03217e-16 0.0 3.88251e-19 6.05385 -21.5995 14.5437 0.126348 31.0207 -0.518098 2.75754 -9.82835 9.65514
64.889 82.0597 6.71661 -45.5626 -85.8695 51.7043 -0.416088 -1.84491 4.07633 -1.78236 -6.23566 0.986105 2.38724 -3.53448 0.187256 -0.0533286 11.3147 -1.26506 -0.0 0.0 0.0 -0.0 0.0 0.0 -2.36958e-15 8.96589e-14 4.14963e-14 -14.1523 37.7959 20.4907 -25.8352 -23.0192 56.0932 -2.89982 -42.6077 -7.42734 4.12974e-10 4.47536e-11 -3.46645e-10 7.22615e-10 7.47017e-11 -5.82801e-10 4.12977e-10 4.47552e-11 -3.46655e-10 7.73091 5.47488 0.417314 4.12972e-10 4.47564e-11 -3.46642e-10 2.90554 0.965183 0.102902 4.12977e-10 4.47564e-11 -3.46645e-10 10.2786 0.731801 0.0259123 4.12966e-10 4.47592e-11 -3.46639e-10 2.22167 -0.733487 -0.20892 -2.40132e-15 8.96449e-14 4.11981e-14 23.4232 31.1672 -19.2861 23.8576 -18.8334 -49.162 0.640738 -22.1274 3.276 -7.56483e-10 7.63263e-10 3.52278e-11 -1.30675e-09 1.32238e-09 4.88366e-11 -7.56484e-10 7.63267e-10 3.52405e-11 -7.73091 5.47488 -0.417314 -7.5648e-10 7.63268e-10 3.52342e-11 -2.90554 0.965183 -0.102902 -7.56483e-10 7.63268e-10 3.5231e-11 -10.2786 0.731801 -0.0259123 -7.56481e-10 7.63269e-10 3.52215e-11 -2.22167 -0.733487 0.20892 -2.03217e-16 0.0 -3.88251e-19 -7.60711 -25.9137 -20.2236 -0.285363 37.2877 0.711473 -6.17549 -8.97473 -21.8978 2.03217e-16 0.0 3.88251e-19 9.05832 -24.8364 18.4175 0.232553 36.9834 -0.671633 3.67986 -12.1275 11.6279
64.8793 81.964 6.52891 -46.0315 -85.8142 52.1704 -0.296849 -1.86014 4.37125 -1.8829 -6.71222 1.06343 2.48361 -3.84997 0.175365 0.0994289 12.0501 -1.39092 -0.0 0.0 0.0 -0.0 0.0 0.0 1.40561e-14 4.7685e-13 4.83412e-14 -16.1198 40.1727 22.151 -25.9054 -22.0706 59.1016 -3.18848 -43.2887 -7.68597 -3.94151e-10 -2.39353e-10 2.86207e-10 -6.86768e-10 -4.22396e-10 4.91618e-10 -3.94148e-10 -2.39352e-10 2.86198e-10 7.73091 5.47488 0.417314 -3.94153e-10 -2.3935e-10 2.86211e-10 2.90554 0.965183 0.102902 -3.94148e-10 -2.3935e-10 2.86208e-10 10.2786 0.731801 0.0259123 -3.9416e-10 -2.39347e-10 2.86214e-10 2.22167 -0.733487 -0.20892 1.39883e-14 4.76835e-13 4.80449e-14 25.6384 33.2891 -20.4402 24.1121 -18.4232 -51.8083 0.767996 -23.3776 3.49582 4.0464e-10 -1.91735e-10 -5.18004e-10 7.08201e-10 -3.42533e-10 -8.92059e-10 4.04639e-10 -1.91734e-10 -5.17994e-10 -7.73091 5.47488 -0.417314 4.04642e-10 -1.91733e-10 -5.18001e-10 -2.90554 0.965183 -0.102902 4.0464e-10 -1.91733e-10 -5.18004e-10 -10.2786 0.731801 -0.0259123 4.04643e-10 -1.91731e-10 -5.18014e-10 -2.22167 -0.733487 0.20892 -2.03217e-16 0.0 -3.88251e-19 -8.82202 -27.4252 -22.2167 -0.360792 40.2291 0.804701 -6.97427 -9.8967 -23.4 2.03217e-16 0.0 3.88251e-19 10.764 -26.1795 20.4682 0.293021 39.6495 -0.748696 3.96796 -13.0644 11.9816
64.8688 81.8702 6.34918 -46.5182 -85.7619 52.66 -0.214774 -1.68347 4.34717 -1.87949 -6.71813 1.05997 2.36034 -3.92032 0.137979 0.295837 11.8791 -1.42779 -0.0 0.0 0.0 -0.0 0.0 0.0 3.67146e-14 1.03254e-12 5.44981e-14 -15.3923 39.9929 21.0646 -25.5242 -21.3387 57.0066 -2.50599 -39.6567 -6.72374 -1.67516e-09 -6.90179e-10 1.27582e-09 -2.9233e-09 -1.21053e-09 2.17084e-09 -1.67516e-09 -6.9018e-10 1.27581e-09 7.73091 5.47488 0.417314 -1.67517e-09 -6.90178e-10 1.27582e-09 2.90554 0.965183 0.102902 -1.67516e-09 -6.90178e-10 1.27582e-09 10.2786 0.731801 0.0259123 -1.67517e-09 -6.90174e-10 1.27582e-09 2.22167 -0.733487 -0.20892 3.66084e-14 1.03253e-12 5.42154e-14 24.8311 33.3411 -19.2487 23.6459 -17.7227 -49.9447 0.721581 -22.7772 3.3937 2.2137e-09 -1.68897e-09 -1.35597e-09 3.84712e-09 -2.95227e-09 -2.31629e-09 2.2137e-09 -1.68897e-09 -1.35597e-09 -7.73091 5.47488 -0.417314 2.2137e-09 -1.68897e-09 -1.35597e-09 -2.90554 0.965183 -0.102902 2.2137e-09 -1.68897e-09 -1.35598e-09 -10.2786 0.731801 -0.0259123 2.21371e-09 -1.68897e-09 -1.35598e-09 -2.22167 -0.733487 0.20892 -2.03217e-16 0.0 -3.88251e-19 -8.67316 -27.3493 -22.4018 -0.356697 40.1683 0.803176 -6.91937 -10.0115 -23.0704 2.03217e-16 0.0 3.88251e-19 11.2914 -26.2807 21.0911 0.299745 39.9624 -0.755287 3.72034 -13.0482 11.1522
64.8571 81.766 6.16635 -47.0014 -85.7092 53.1456 -0.145083 -1.42697 4.1984 -1.83447 -6.54041 1.02468 2.15354 -3.87966 0.0895701 0.498383 11.3241 -1.4296 -0.0 0.0 0.0 -0.0 0.0 0.0 6.5291e-14 1.58729e-12 5.45392e-14 -13.6496 38.7567 18.9188 -24.8169 -20.4036 52.9513 -1.73577 -34.5519 -5.55017 -2.65054e-09 -9.43268e-10 2.1045e-09 -4.62867e-09 -1.65436e-09 3.57825e-09 -2.65053e-09 -9.4327e-10 2.10449e-09 7.73091 5.47488 0.417314 -2.65054e-09 -9.43268e-10 2.1045e-09 2.90554 0.965183 0.102902 -2.65053e-09 -9.43267e-10 2.1045e-09 10.2786 0.731801 0.0259123 -2.65055e-09 -9.43264e-10 2.1045e-09 2.22167 -0.733487 -0.20892 6.51542e-14 1.58728e-12 5.42748e-14 22.8516 32.5056 -17.1435 22.7668 -16.7171 -46.3466 0.611462 -21.4179 3.16367 3.81834e-09 -3.09916e-09 -2.02984e-09 6.62997e-09 -5.40719e-09 -3.4591e-09 3.81834e-09 -3.09916e-09 -2.02984e-09 -7.73091 5.47488 -0.417314 3.81834e-09 -3.09916e-09 -2.02985e-09 -2.90554 0.965183 -0.102902 3.81834e-09 -3.09916e-09 -2.02985e-09 -10.2786 0.731801 -0.0259123 3.81835e-09 -3.09916e-09 -2.02986e-09 -2.22167 -0.733487 0.20892 -2.03217e-16 0.0 -3.88251e-19 -7.96819 -26.6584 -21.8677 -0.319861 38.9268 0.76331 -6.51747 -9.81218 -21.9946 2.03217e-16 0.0 3.88251e-19 11.3406 -25.9173 21.1538 0.283829 39.3715 -0.73305 3.26288 -12.6392 9.82325
